<?xml version="1.0" encoding="utf-8"?>
<!-- Generator: Adobe Illustrator 18.0.0, SVG Export Plug-In . SVG Version: 6.00 Build 0)  -->
<!DOCTYPE svg PUBLIC "-//W3C//DTD SVG 1.1//EN" "http://www.w3.org/Graphics/SVG/1.1/DTD/svg11.dtd">
<svg version="1.1" id="Layer_1" xmlns="http://www.w3.org/2000/svg" xmlns:xlink="http://www.w3.org/1999/xlink" x="0px" y="0px"
	 viewBox="0 0 468.3 360.6" width="360.370487858" height="277.492201413" enable-background="new 0 0 468.3 360.6" xml:space="preserve">
<rect x="0" y="0" fill="#E42618" width="468.3" height="360.6"/>
<path fill="#FFFFFF" d="M431.5,51.1l0,54.1c-9.1-6.2-17.7-8.4-27.4-8.4c-17.8,0-32.5,14.5-32.5,32.3c0,20.4,11.3,31.9,32.2,31.9
	c8.3,0,19.3-4.5,27.5-10.7c0.1,16.2,0.1,37.9,0.1,54.2c-12.2,6.9-26.3,9.9-41.2,9.9c-46.5,0-83.9-33.7-83.9-84.5
	c0-46.7,37.4-86.7,83.9-86.7C405.3,43.2,417.5,43.7,431.5,51.1"/>
<path fill="none" stroke="#FFFFFF" stroke-width="0.8812" stroke-miterlimit="3.864" d="M431.5,51.1l0,54.1
	c-9.1-6.2-17.7-8.4-27.4-8.4c-17.8,0-32.5,14.5-32.5,32.3c0,20.4,11.3,31.9,32.2,31.9c8.3,0,19.3-4.5,27.5-10.7
	c0.1,16.2,0.1,37.9,0.1,54.2c-12.2,6.9-26.3,9.9-41.2,9.9c-46.5,0-83.9-33.7-83.9-84.5c0-46.7,37.4-86.7,83.9-86.7
	C405.3,43.2,417.5,43.7,431.5,51.1z"/>
<path fill="#FFFFFF" d="M317.8,159.2c0,29.8-33.6,53.9-73.2,53.9c-22.9,0-37.3-3.8-55.1-13c0-15.6,0-36.5,0.1-52.1
	c9.5,8.2,22.3,21,47.4,21c9,0,17.8-2.2,17.8-9.7c0-5.6-9.3-8.9-21.1-9.6C193.8,147.3,185,124,185,98.8c0-29.8,33.6-53.9,73.1-53.9
	c22.9,0,37.9,3.8,55.8,13c0,15.1,0,35.1,0,50.2c-10.9-7.8-26-16.9-45.8-16.9c-6.9,0-17.3,0.7-17.3,8.5c0,5.8,5.8,7.1,16.7,8.5
	c8.1,1,25.7,4.7,41.9,15.4C309.4,123.6,317.8,130.2,317.8,159.2"/>
<path fill="none" stroke="#FFFFFF" stroke-width="0.8812" stroke-miterlimit="3.864" d="M317.8,159.2c0,29.8-33.6,53.9-73.2,53.9
	c-22.9,0-37.3-3.8-55.1-13c0-15.6,0-36.5,0.1-52.1c9.5,8.2,22.3,21,47.4,21c9,0,17.8-2.2,17.8-9.7c0-5.6-9.3-8.9-21.1-9.6
	C193.8,147.3,185,124,185,98.8c0-29.8,33.6-53.9,73.1-53.9c22.9,0,37.9,3.8,55.8,13c0,15.1,0,35.1,0,50.2
	c-10.9-7.8-26-16.9-45.8-16.9c-6.9,0-17.3,0.7-17.3,8.5c0,5.8,5.8,7.1,16.7,8.5c8.1,1,25.7,4.7,41.9,15.4
	C309.4,123.6,317.8,130.2,317.8,159.2z"/>
<path fill="#FFFFFF" d="M59,262.3l-2.9,4c-1.2-1.5-2.7-2.4-4.8-2.4c-2,0-3.9,1.4-3.9,3.4c0,5,12.7,2.9,12.7,12.9
	c0,6-4,10.2-10.6,10.2c-4.4,0-7.7-2.4-9.9-5.8c1.2-1.1,2.8-2.6,4.1-3.7c0.9,2.3,3.1,4.4,5.8,4.4c2.6,0,4.2-2,4.2-4.3
	c0-3.1-3.1-4-5.6-4.9c-4.2-1.6-7.2-3.5-7.2-8.2c0-4.9,4-8.9,9.4-8.9C53.1,259,57,260.3,59,262.3"/>
<polygon fill="#FFFFFF" points="76.1,271.6 87.7,271.6 87.7,259.8 93.9,259.8 93.9,289.7 87.7,289.7 87.7,276.3 76.1,276.3 
	76.1,289.7 69.8,289.7 69.8,259.8 76.1,259.8 "/>
<path fill="#FFFFFF" d="M120.6,278.6l-4-10.9h-0.1l-3.5,10.9H120.6z M122.4,283.4h-11.2l-2.6,6.3h-6.6l12.2-30.7h5.6l11.8,30.7h-6.7
	L122.4,283.4z"/>
<polygon fill="#FFFFFF" points="145.8,272.4 155.8,259.8 163.6,259.8 151.4,273.6 164.3,289.7 156.2,289.7 145.9,276.2 145.8,289.7 
	139.6,289.7 139.6,259.8 145.8,259.8 "/>
<polygon fill="#FFFFFF" points="136.2,328.4 133.7,309.8 126.9,328.8 123.5,328.8 117.1,309.8 114.1,328.4 107.8,328.4 113,297.7 
	118.7,297.7 125.6,317.4 132.6,297.7 137.9,297.7 142.6,328.4 "/>
<polygon fill="#FFFFFF" points="214.1,328.4 214.1,297.7 219.4,297.7 235.6,318.6 235.7,298.5 242,298.5 242,329 236.6,329 
	220.5,308.1 220.4,328.4 "/>
<path fill="#FFFFFF" d="M62.4,299.4v7c-1.7-2-4.4-3.2-7.1-3.2c-6,0-9.5,5.2-9.5,10.3c0,5,3.6,10.1,9.4,10.1c2.7,0,5.4-1.3,7.1-3.2
	v6.9c-2.3,1-4.7,1.8-7.3,1.8c-9,0-15.7-7.3-15.7-15.5c0-8.5,6.4-16,15.9-16C57.7,297.7,60.2,298.3,62.4,299.4"/>
<path fill="#FFFFFF" d="M85.6,303.5c-5.5,0-9.4,4.9-9.4,9.7c0,4.5,4.1,10.3,9.4,10.3c5.3,0,9.4-5.8,9.4-10.3
	C95,308.3,91.1,303.5,85.6,303.5 M85.6,329.2c-9.4,0-15.9-7.2-15.9-15.8c0-8.4,6.5-15.7,15.9-15.7c9.4,0,15.9,7.4,15.9,15.7
	C101.5,322,95,329.2,85.6,329.2"/>
<path fill="#FFFFFF" d="M158.8,303.3v9h1.3c3.7,0,5.7-0.8,5.7-4.6c0-3.9-2.4-4.4-5.9-4.4H158.8z M158.8,317.2v11.2h-6.3v-29.9h8.5
	c6.7,0,11.1,2.5,11.1,9.3c0,6.3-3.7,9.4-10.3,9.4H158.8z"/>
<path fill="#FFFFFF" d="M195.2,317.3l-4-10.9h-0.1l-3.5,10.9H195.2z M197,322.1h-11.2l-2.6,6.3h-6.6l12.2-30.7h5.6l11.8,30.7h-6.7
	L197,322.1z"/>
<polygon fill="#FFFFFF" points="260,314.7 250,298.5 257.3,298.5 263.3,308.5 269.4,298.5 276.4,298.5 266.2,314.7 266.2,328.4 
	260,328.4 "/>
<path fill="#FFFFFF" d="M46.7,225.9v9h0.8c3.4,0,5.9-1,5.9-4.6c0-3.7-2.5-4.4-5.8-4.4H46.7z M53.1,238.4l9.1,12.6h-7.6l-7.8-12h-0.1
	v12h-6.3v-29.9h8.5c6.4,0,10.8,2.6,10.8,9C59.7,233.9,57.4,237.7,53.1,238.4"/>
<path fill="#FFFFFF" d="M83.1,226.1c-5.5,0-9.4,4.9-9.4,9.7c0,4.5,4.1,10.3,9.4,10.3c5.3,0,9.4-5.7,9.4-10.3
	C92.5,230.9,88.6,226.1,83.1,226.1 M83.1,251.8c-9.4,0-15.9-7.2-15.9-15.8c0-8.4,6.5-15.7,15.9-15.7c9.4,0,15.9,7.4,15.9,15.7
	C99,244.5,92.5,251.8,83.1,251.8"/>
<polygon fill="#FFFFFF" points="112.6,237.3 102.6,221.1 109.9,221.1 115.9,231.1 122,221.1 129,221.1 118.8,237.3 118.8,251 
	112.6,251 "/>
<path fill="#FFFFFF" d="M149,239.9l-4-10.9h-0.1l-3.5,10.9H149z M150.7,244.7h-11.2l-2.6,6.3h-6.6l12.2-30.7h5.6l11.8,30.7h-6.7
	L150.7,244.7z"/>
<polygon fill="#FFFFFF" points="174.6,221.1 174.6,245.9 183.4,245.9 183.4,251 168.3,251 168.3,221.1 "/>
<path fill="#FFFFFF" d="M99.9,121l13.5,0.2c9.2,0,18.4-6.6,18.4-14.9s-9.1-14.9-18.4-14.9H99.9V121z M188.5,118.3
	c-4.2,8.2-10.9,15.1-21,21.6c10.6,20.1,24.7,46.9,35.3,66.9h-70l-23.6-51.1l-7.2-15.6v66.7H40.7v-162h85.4c39,0,56.3,20.6,63.6,34.4
	C189.4,91,191.4,107,188.5,118.3"/>
<path fill="none" stroke="#FFFFFF" stroke-width="0.8812" stroke-miterlimit="3.864" d="M99.9,121l13.5,0.2
	c9.2,0,18.4-6.6,18.4-14.9s-9.1-14.9-18.4-14.9H99.9V121z M188.5,118.3c-4.2,8.2-10.9,15.1-21,21.6c10.6,20.1,24.7,46.9,35.3,66.9
	h-70l-23.6-51.1l-7.2-15.6v66.7H40.7v-162h85.4c39,0,56.3,20.6,63.6,34.4C189.4,91,191.4,107,188.5,118.3z"/>
<polygon fill="#FFFFFF" points="189.2,264.9 178.8,264.9 178.8,271.4 188.8,271.4 188.8,276.5 178.8,276.5 178.8,284.6 189.2,284.6 
	189.2,289.7 172.6,289.7 172.6,259.8 189.2,259.8 "/>
<path fill="#FFFFFF" d="M218,262.3l-2.9,4c-1.2-1.5-2.7-2.4-4.8-2.4c-2,0-3.9,1.4-3.9,3.4c0,5,12.7,2.9,12.7,12.9
	c0,6-4,10.2-10.6,10.2c-4.4,0-7.7-2.4-9.9-5.8c1.2-1.1,2.8-2.6,4.1-3.7c0.9,2.3,3.1,4.4,5.8,4.4c2.6,0,4.2-2,4.2-4.3
	c0-3.1-3.1-4-5.6-4.9c-4.2-1.6-7.2-3.5-7.2-8.2c0-4.9,4-8.9,9.4-8.9C212.1,259,216.1,260.3,218,262.3"/>
<path fill="#FFFFFF" d="M235.2,264.6v9h1.3c3.7,0,5.7-0.8,5.7-4.6c0-3.9-2.4-4.4-5.9-4.4H235.2z M235.2,278.5v11.2h-6.3v-29.9h8.5
	c6.7,0,11.1,2.5,11.1,9.3c0,6.3-3.7,9.4-10.3,9.4H235.2z"/>
<polygon fill="#FFFFFF" points="274.6,264.9 264.3,264.9 264.3,271.4 274.3,271.4 274.3,276.5 264.3,276.5 264.3,284.6 274.6,284.6 
	274.6,289.7 258,289.7 258,259.8 274.6,259.8 "/>
<path fill="#FFFFFF" d="M300.6,278.6l-4-10.9h-0.1l-3.5,10.9H300.6z M302.3,283.4h-11.2l-2.6,6.3h-6.6l12.2-30.7h5.6l11.8,30.7h-6.7
	L302.3,283.4z"/>
<path fill="#FFFFFF" d="M325.4,264.6v9h0.8c3.4,0,5.9-1,5.9-4.6c0-3.7-2.5-4.4-5.9-4.4H325.4z M331.8,277.1l9.1,12.6h-7.6l-7.8-12
	h-0.1v12h-6.3v-29.9h8.5c6.3,0,10.8,2.6,10.8,9C338.4,272.6,336.1,276.4,331.8,277.1"/>
<polygon fill="#FFFFFF" points="366.2,264.9 355.8,264.9 355.8,271.4 365.8,271.4 365.8,276.5 355.8,276.5 355.8,284.6 366.2,284.6 
	366.2,289.7 349.5,289.7 349.5,259.8 366.2,259.8 "/>
</svg>
