<?xml version="1.0" encoding="UTF-8"?>
<!-- Created with Inkscape (http://www.inkscape.org/) -->
<svg width="295.1" height="182.19" version="1.1" viewBox="0 0 295.1 182.19" xml:space="preserve" xmlns="http://www.w3.org/2000/svg"><defs><clipPath id="clipPath20-3"><path d="m310.28 50.075h221.33v136.64h-221.33z"/></clipPath></defs><g transform="matrix(1.3333 0 0 -1.3333 -231.38 459.71)"><path d="m223.83 308.75h28.466v-29.206h-28.466z" fill="#169a49"/><g transform="translate(-136.75 158.07)"><g clip-path="url(#clipPath20-3)"><g transform="translate(361.16 139.64)"><path d="m0 0c9.367 10.078 18.523 10.129 27.468 0.149l0.072-6.687c-9.275-10.044-18.456-10.093-27.54-0.149z" fill="#fff"/></g><g transform="translate(374.87 138.67)"><path d="m0 0-2.839 5.464c-2.867-0.953-5.74-3.461-8.621-7.522h23.885c-3.103 3.925-6.275 6.456-9.515 7.593zm-11.288-3.193c4.531-7.885 15.055-11.309 23.43 0z" fill="#db3526"/></g><g transform="translate(342.16 150.03)"><path d="m0 0h11.993v-28.031h-11.993l1.703 4.898 2.819 13.912c0.722 4.372-0.785 6.571-4.522 6.596z" fill="#eebe1c"/></g><g transform="translate(326.27 150.64)"><path d="m0 0h15.873v-3.239c3.737-0.024 5.244-2.224 4.522-6.596l-2.819-13.912-1.591-4.577h-0.139v-1.148h-15.846z" fill="#db3526"/></g><g transform="translate(370.89 185.87)"><path d="m0 0h18.227v-29.411h-12.574s2.807 1.743 3.488 2.86 1.117 1.39 1.417 2.752c0.299 1.363-0.164 1.662 0.572 2.153 0.735 0.49 2.179 0.109 1.607 2.043s-0.736 3.869 0.681 4.686c1.417 0.818 2.364 1.832 2.759 2.786s0.735 1.498-0.3 1.076-1.703 0.055-1.934 0.327c-0.232 0.273-1.969 1.301-2.541 3.086-0.572 1.784-1.062 2.683-1.335 3.351-0.272 0.667-0.109 1.076-1.321 1.103-1.213 0.027-3.229 1.199-3.379 0.572-0.15-0.626-0.3-1.144-1.825-0.204-1.526 0.94-1.853 1.008-1.853 1.008s0.872 0.273-0.286 0.872-1.403 0.94-1.403 0.94" fill="#db3526" fill-rule="evenodd"/></g><g transform="translate(386.87 164.69)"><path d="m0 0s0.082 1.09-0.599 0.531c-0.682-0.558-1.458-0.3-1.335-1.09 0.122-0.79-0.518-1.58-0.3-2.111s1.376-1.403 1.594-0.123c0.218 1.281 0.64 2.793 0.64 2.793" fill="#fff" fill-rule="evenodd"/></g><g transform="translate(360.55 185.87)"><path d="m0 0h10.34s0.245-0.341 1.403-0.94 0.286-0.872 0.286-0.872 0.327-0.068 1.853-1.008c1.525-0.94 1.675-0.422 1.825 0.204 0.15 0.627 2.166-0.545 3.378-0.572 0.945-0.021 1.054-0.274 1.185-0.7v-21.477c-0.219-0.342-0.478-0.675-0.789-1.186-0.594-0.973-2.801-2.422-3.359-2.779h-16.122z" fill="#eebe1c" fill-rule="evenodd"/></g><g transform="translate(372.98 184.42)"><path d="m0 0c0.052 0.023 0.063 0.097 0.036 0.22-0.251 0.172-0.122 0.307-0.301 0.652-0.026 0.114-0.292 0.104-0.48-0.089-0.042-0.034-0.211-0.034-0.506 0-0.303 0.135-0.505 0.135-0.606 0-0.058-0.078-0.142-0.086-0.253-0.024-0.468 0.143-1.041 0.059-1.719-0.254l-0.505-0.278c-0.107-0.111-0.251-0.17-0.431-0.177-0.066 0.085-0.302 0.11-0.707 0.077-0.089-0.095-0.185-0.053-0.291 0.126-0.122 0.154-0.261 0.078-0.416-0.228-0.175-0.341-0.246-0.574-0.455-0.606-0.305-0.121-0.474-0.231-0.506-0.329l-0.279-0.429c-0.077-0.108-0.09-0.234-0.038-0.379 0.058-0.135 0.07-0.26 0.038-0.38l-0.454-0.607c-0.157-0.195-0.343-0.296-0.556-0.302-0.118-0.016-0.286-0.209-0.506-0.582-0.224-0.147-0.317-0.265-0.277-0.353-0.071-0.33-0.215-0.6-0.43-0.809-0.279-0.435-0.472-0.763-0.481-0.986 0.025-0.076 0.226-0.302 0.329-0.126-0.152-0.489-0.152-0.544 0.076-0.809l-0.051-0.278c-0.069-0.511-0.22-0.907-0.455-1.188 0.249-0.393 0.308-0.662 0.177-0.809 0.256-0.318 0.56-0.605 0.91-0.859 0.334-0.281 0.394-0.457 0.404-0.581 0.026-0.303 0.236-0.494 0.506-0.556 0.27-0.092 0.616-0.337 1.036-0.733 0.186-0.291 0.488-0.35 0.911-0.177 0.338 0.137 0.57 0.158 1.124 0.139 0.531-0.202 0.779 0.045 0.998 0.114l0.733 0.329c0.301 0.074 0.563 0.083 0.784 0.025 0.38 0.068 0.565-0.033 0.555-0.304 0.075-0.47 0.361-0.563 0.86-0.277 0.275 9e-3 0.427-0.042 0.455-0.152 0.36-0.232 0.486-0.417 0.379-0.556-0.178-0.429-0.203-0.666-0.076-0.708-0.014-0.227-0.081-0.43-0.202-0.606 0.14-0.37 0.46-0.791 0.96-1.264 0.281-0.295 0.391-0.488 0.329-0.581 0.064-0.933 0.24-1.557 0.531-1.87-0.105-0.378-0.256-0.639-0.455-0.784-0.227-0.688-0.328-1.16-0.303-1.415-0.07-0.171 0.014-0.407 0.252-0.708 0.237-0.512 0.465-0.9 0.683-1.162 0.07-1.595 0.281-2.438 0.631-2.528 0.388-0.765 0.624-1.169 0.709-1.213 0.078-0.387 0.071-0.64-0.026-0.758-0.06-0.105-0.026-0.273 0.101-0.505 0.159-0.036 0.268-0.104 0.328-0.202 0.118-0.209 0.345-0.2 0.683 0.025 0.276 0.147 0.707 0.198 1.29 0.151 1.036 0.023 1.878 0.756 2.527 2.199 0.25 0.04 0.389 0.25 0.419 0.632 0.012 0.15 0.124 0.303-0.015 0.531 0.086 0.191 0.187 0.3 0.304 0.328 0.772 0.162 0.915 0.853 0.429 2.073 0.442 0.429 0.603 0.739 0.961 0.986 0.401 0.015 0.654 0.132 0.758 0.353 0.229 0.169 0.376 0.335 0.444 0.5 0.06 0.147 0.011 0.284-0.014 0.435l-0.127 1.314c-0.195 0.206-0.296 0.518-0.303 0.935 0.061 0.099 0.035 0.259-0.076 0.481-0.213-0.027-0.187 0.226 0.076 0.758 0.462 0.688 0.921 1.281 1.377 1.782 1.226 0.795 2.031 1.743 2.414 2.843l0.43 0.859c0.164 0.442-0.036 0.552-0.43 0.278-0.404-0.139-0.985-0.274-1.744-0.405-0.198-0.082-0.358-0.019-0.632 0.317 0.158 0.312-0.263 0.822-1.263 1.529-0.11-5e-3 -0.211 0.155-0.303 0.479-0.016 0.4-0.201 0.644-0.557 0.734l-0.152 1.086c0.025 0.177-0.092 0.379-0.353 0.607-0.129 0.027-0.298 0.314-0.506 0.859l-0.783 1.744c-0.039 0.298-0.14 0.55-0.304 0.758 0.092 0.191-0.135 0.174-0.682-0.05-0.252-0.11-0.479-0.101-0.683 0.025-0.278 0.132-0.59 0.174-0.935 0.126-0.372 0.131-0.658 0.249-0.859 0.354 0.069 0.106-0.092 0.174-0.48 0.202-0.419-0.112-0.605-0.214-0.556-0.303 8e-3 -0.517-0.127-0.761-0.404-0.733-0.503 0.115-0.908 0.275-1.214 0.48-0.248 0.412-0.576 0.593-0.985 0.543-0.371 0.033-0.589 0.104-0.657 0.215-0.091 0.145-0.201 0.229-0.329 0.253-0.145 0.032-0.196 0.108-0.152 0.227z" fill="#fff"/></g><g transform="translate(376.06 160.32)"><path d="m0 0c0 0.862 0.699 1.561 1.561 1.561s1.562-0.699 1.562-1.561-0.7-1.561-1.562-1.561-1.561 0.699-1.561 1.561" fill="#db3526"/></g><path d="m325.8 185.81h28.825v-29.479h-28.825z" fill="#0f497d" fill-rule="evenodd"/><g transform="translate(354.37 167.62)"><path d="m0 0v7.956s-8.528 6.784-14.249 6.484c-5.722-0.3-9.727-2.479-13.677-7.029v-8.405s5.912-6.144 13.568-6.226 14.358 7.22 14.358 7.22" fill="#fff" fill-rule="evenodd"/></g><g transform="translate(343.12 178.1)"><path d="m0 0c2.616-1.085 4.457-3.663 4.457-6.672 0-3.987-3.233-7.22-7.22-7.22-3.988 0-7.22 3.233-7.22 7.22 0 2.466 1.236 4.643 3.123 5.945l4.103-7.099 3.498 7.454c-0.251 0.141-0.498 0.263-0.741 0.372" fill="#eebe1c" fill-rule="evenodd"/></g><g transform="translate(422.44 160.42)"><path d="m0 0c0-3.043-0.855-5.485-2.568-7.324-1.965-2.092-4.851-3.138-8.655-3.138-3.075 0-5.484 0.761-7.228 2.283-1.553 1.331-2.742 3.424-3.567 6.277l3.853 1.949c0-1.997 0.728-3.661 2.187-4.993 1.459-1.331 3.138-1.997 5.041-1.997 2.06 0 3.701 0.658 4.921 1.974 1.221 1.315 1.831 2.908 1.831 4.779 0 2.314-1.474 4.153-4.422 5.516-2.79 1.172-5.564 2.346-8.322 3.519-2.98 1.775-4.47 4.28-4.47 7.513 0 2.664 0.887 4.883 2.663 6.659 1.966 1.965 4.692 2.948 8.179 2.948 2.251 0 4.312-0.618 6.182-1.855 1.871-1.236 3.154-2.885 3.852-4.945l-3.757-1.76c-0.349 1.49-1.188 2.687-2.52 3.59-1.332 0.904-2.806 1.355-4.423 1.355-1.68 0-3.083-0.546-4.208-1.64-1.126-1.094-1.688-2.322-1.688-3.686 0-2.409 1.474-4.248 4.422-5.516 2.727-1.11 5.469-2.219 8.227-3.329 2.98-1.807 4.47-4.533 4.47-8.179m29.445 21.542h-10.13v-31.434h-4.374v31.434h-10.129v3.71h24.633zm30.908-31.434-4.937 4e-3 -4.502 10.934h-14.023l-4.513-10.933-4.554-5e-3 15.456 36.19h1.143zm-10.79 14.124-5.909 15.193-5.713-15.193zm33.446 17.31h-10.129v-31.434h-4.375v31.434h-10.129v3.71h24.633zm26.161-31.434h-19.117v35.143h19.117v-3.804h-14.885v-10.367h14.885v-3.614h-14.885v-13.552h14.885z"/></g><g transform="translate(416.93 141.5)"><path d="m0 0h-6.786v-21.061h-2.932v21.061h-6.786v2.485h16.504zm21.747-21.061h-2.772v11.757h-13.063v-11.757h-2.773v23.547h2.773v-9.305h13.063v9.305h2.772zm16.802 0h-12.81v23.547h12.81v-2.55h-9.973v-6.946h9.973v-2.422h-9.973v-9.08h9.973zm26.686 0-3.308 2e-3 -3.018 7.326h-9.395l-3.024-7.325-3.05-3e-3 10.355 24.248h0.765zm-7.231 9.463-3.958 10.179-3.828-10.179zm21.83 11.598h-6.788v-21.061h-2.931v21.061h-6.786v2.485h16.505zm18.792-21.055-3.832-6e-3 -8.859 12.044v-12.044h-2.962v23.546h8.762c1.615 0 2.964-0.643 4.047-1.927 1.084-1.285 1.625-2.746 1.625-4.381 0-1.615-0.477-3.027-1.433-4.239-0.955-1.21-1.984-1.816-3.087-1.816l-3.119 7e-3zm-4.214 17.04c0 1.296-0.383 2.3-1.148 3.011-0.765 0.712-1.709 1.068-2.835 1.068h-4.494v-7.903h5.258c0.914 0 1.679 0.393 2.295 1.18 0.616 0.785 0.924 1.667 0.924 2.644m20.271-17.046h-12.809v23.547h12.809v-2.55h-9.973v-6.946h9.973v-2.422h-9.973v-9.08h9.973z"/></g><g transform="translate(310.91 123.69)"><path d="m0 0v-1.34h4.158v-0.578h-4.158v-1.341h-0.491v3.259zm4.158 4.405v-0.547h-2.321v-2.58h2.321v-0.546h-4.648v0.546h1.836v2.58h-1.836v0.547zm0 3.765v-2.528h-4.648v2.528h0.503v-1.968h1.371v1.968h0.478v-1.968h1.793v1.968zm-1.308 5.585c0.403 0 0.725-0.113 0.969-0.34 0.276-0.259 0.414-0.641 0.414-1.144 0-0.406-0.1-0.726-0.301-0.956-0.176-0.205-0.454-0.363-0.831-0.472l-0.257 0.51c0.263 0 0.484 0.096 0.66 0.289 0.176 0.192 0.265 0.415 0.265 0.667 0 0.272-0.088 0.489-0.262 0.651-0.174 0.161-0.384 0.242-0.632 0.242-0.307 0-0.55-0.195-0.73-0.585-0.155-0.369-0.31-0.736-0.465-1.101-0.235-0.394-0.566-0.592-0.994-0.592-0.353 0-0.646 0.118-0.881 0.353-0.26 0.26-0.39 0.621-0.39 1.082 0 0.297 0.081 0.571 0.245 0.818s0.382 0.417 0.654 0.509l0.233-0.497c-0.197-0.046-0.355-0.157-0.475-0.333-0.119-0.176-0.179-0.371-0.179-0.585 0-0.222 0.072-0.408 0.217-0.557 0.145-0.148 0.307-0.223 0.488-0.223 0.319 0 0.561 0.195 0.729 0.584 0.147 0.362 0.294 0.724 0.44 1.089 0.239 0.395 0.601 0.591 1.083 0.591m-1.054 5.815c0.688 0 1.275-0.243 1.76-0.726 0.485-0.484 0.728-1.072 0.728-1.759 0-0.696-0.231-1.292-0.693-1.787-0.475-0.507-1.052-0.761-1.732-0.761-0.689 0-1.275 0.242-1.76 0.727-0.486 0.484-0.728 1.07-0.728 1.758 0 0.696 0.234 1.295 0.702 1.796 0.468 0.502 1.043 0.752 1.723 0.752m-0.013-0.579c-0.534 0-0.985-0.193-1.354-0.579-0.37-0.385-0.555-0.848-0.555-1.39 0-0.532 0.194-0.984 0.579-1.352 0.387-0.369 0.851-0.554 1.393-0.554 0.534 0 0.984 0.192 1.352 0.576 0.367 0.383 0.551 0.848 0.551 1.393 0 0.533-0.193 0.983-0.58 1.352-0.386 0.369-0.848 0.554-1.386 0.554m-2.274 5.392 3.167-6e-3c0.461 0 0.841-0.176 1.143-0.528 0.302-0.353 0.452-0.809 0.452-1.372 0-0.537-0.153-0.974-0.461-1.312-0.308-0.337-0.695-0.506-1.16-0.506h-3.141v0.56h3.141c0.351 0 0.63 0.13 0.836 0.39 0.188 0.239 0.282 0.549 0.282 0.931 0 0.344-0.109 0.642-0.326 0.893-0.218 0.251-0.483 0.378-0.792 0.378h-3.141zm0.491 4.022v-1.339h4.158v-0.579h-4.158v-1.34h-0.491v3.258zm4.158 4.406v-0.547h-2.321v-2.579h2.321v-0.548h-4.648v0.548h1.836v2.579h-1.836v0.547zm0 7.078v-0.653l-1.447-0.596v-1.855l1.447-0.597v-0.602l-4.787 2.044v0.151zm-1.868-1.428-2.01-0.781 2.01-0.756zm-0.409 4.76v-1.956h2.277v-0.547h-4.649v2.503h0.491v-1.956h1.403v1.956zm2.275 4.055 2e-3 -0.757-2.378-1.749h2.378v-0.585h-4.648v1.73c0 0.319 0.126 0.585 0.38 0.8 0.253 0.213 0.542 0.32 0.865 0.32 0.319 0 0.598-0.094 0.837-0.282 0.239-0.189 0.358-0.392 0.358-0.611l-1e-3 -0.615zm-3.363-0.832c-0.256 0-0.454-0.075-0.594-0.226-0.141-0.151-0.212-0.338-0.212-0.56v-0.888h1.56v1.039c0 0.18-0.078 0.331-0.232 0.452-0.156 0.122-0.329 0.183-0.522 0.183m-1.283 1.611h4.649v0.547h-4.649zm4.44 5.364c0.189-0.436 0.284-0.878 0.284-1.327 0-0.763-0.243-1.378-0.729-1.843-0.453-0.433-1.009-0.647-1.671-0.647-0.645 0-1.209 0.219-1.691 0.66-0.514 0.469-0.772 1.062-0.772 1.78 0 0.28 0.052 0.593 0.156 0.937 0.035 0.113 0.089 0.26 0.165 0.44h0.616c-0.289-0.402-0.433-0.824-0.433-1.265 0-0.57 0.2-1.043 0.602-1.421 0.385-0.36 0.837-0.541 1.357-0.541 0.523 0 0.969 0.179 1.338 0.535 0.389 0.378 0.584 0.862 0.584 1.453 0 0.206-0.039 0.405-0.114 0.598-0.075 0.192-0.19 0.406-0.346 0.641zm0.208 4.793v-0.654l-1.447-0.595v-1.855l1.447-0.597v-0.602l-4.787 2.044v0.151zm-1.868-1.428-2.01-0.781 2.01-0.756zm1.969 6.239v-0.114l-3.736-3.397h3.635v-0.522h-4.768l1e-3 0.132 3.74 3.366h-3.628v0.535z"/></g><g fill-rule="evenodd"><path d="m324.98 186.72h30.586v-31.083h-30.586zm14.972-24.341h-4e-3c-5.396 0.374-9.762 3.301-12.981 8.701v-3.45c8.839-8.864 17.687-8.84 26.541 0.071v3.416c-2.851-5.058-8.141-8.477-13.551-8.738zm-12.985 9.417c3.852 5.574 8.46 8.399 13.702 8.399 0.116 0 0.233-1e-3 0.351-4e-3 4.631-0.447 8.83-3.331 12.488-8.573v2.967c-9.327 9.22-18.174 9.267-26.541 0.142zm13.27 6.266c-1.179 0-2.287-0.311-3.246-0.856 0.763-1.233 2.357-4.095 3.235-5.683 1.836 3.478 2.709 5.036 3.14 5.749-0.932 0.504-1.997 0.79-3.129 0.79m-4.181-1.497c-0.735-0.603-1.337-1.362-1.757-2.225l-0.023-0.048-0.024-0.05c-0.688-1.488-0.814-3.215-0.29-4.825l0.01-0.03c0.01-0.031 0.021-0.062 0.032-0.094l0.02-0.057 0.029-0.077 0.029-0.078 0.022-0.057c0.015-0.036 0.029-0.072 0.044-0.107l0.012-0.028c1.005-2.364 3.35-4.027 6.077-4.027 2.273 0 4.281 1.155 5.468 2.909l0.01 0.014c0.021 0.032 0.042 0.063 0.063 0.095 0.022 0.036 0.045 0.071 0.067 0.107 0.75 1.215 1.096 2.655 0.963 4.093l-2e-3 0.022c-4e-3 0.041-9e-3 0.081-0.013 0.121l-6e-3 0.047c-4e-3 0.036-9e-3 0.072-0.014 0.108l-8e-3 0.056c-5e-3 0.034-0.011 0.068-0.016 0.102l-0.01 0.06c-6e-3 0.034-0.012 0.067-0.018 0.101l-0.012 0.06c-7e-3 0.032-0.013 0.065-0.02 0.097l-0.014 0.065c-7e-3 0.03-0.014 0.06-0.022 0.09l-0.017 0.072c-7e-3 0.028-0.015 0.056-0.022 0.085-7e-3 0.024-0.013 0.048-0.02 0.072-8e-3 0.03-0.017 0.059-0.026 0.089l-0.02 0.067c-8e-3 0.029-0.018 0.057-0.027 0.086l-0.024 0.074c-9e-3 0.025-0.018 0.051-0.026 0.076-0.01 0.026-0.019 0.053-0.028 0.079-9e-3 0.025-0.019 0.049-0.028 0.074-0.01 0.027-0.02 0.055-0.031 0.082l-0.024 0.06c-0.013 0.032-0.026 0.064-0.039 0.096l-0.015 0.034c-0.439 1.025-1.131 1.917-1.996 2.597-0.639-1.085-2.193-3.97-3.57-6.589l-0.492-0.935-0.508 0.926c-1.144 2.081-2.94 5.296-3.684 6.511m4.187-12.839c-2.927-1e-3 -5.57 1.618-6.898 4.224-0.113 0.221-0.214 0.446-0.303 0.673l-0.019 0.05c-0.016 0.039-0.031 0.078-0.045 0.116-0.012 0.034-0.024 0.068-0.036 0.102-7e-3 0.02-0.015 0.041-0.022 0.062-0.016 0.046-0.031 0.093-0.046 0.14l-8e-3 0.024c-0.016 0.05-0.032 0.101-0.047 0.153l-5e-3 0.015c-0.016 0.054-0.031 0.109-0.046 0.164v1e-3c-0.173 0.642-0.266 1.316-0.266 2.012 0 1.252 0.299 2.434 0.829 3.481 0.571 1.139 1.429 2.149 2.544 2.908l0.427 0.291 0.013-0.015c0.334 0.197 0.685 0.37 1.049 0.517-3.019-0.947-6.035-3.459-9.049-7.537 4.462-5.101 8.445-7.948 11.778-7.878 4.181 0.087 8.095 2.989 11.782 7.878-2.808 4.071-5.72 6.579-8.733 7.524 0.337-0.137 0.663-0.297 0.975-0.479l0.011 9e-3 0.347-0.226c1.124-0.734 2.041-1.758 2.654-2.961 0.083-0.161 0.158-0.325 0.228-0.489l8e-3 -0.019c0.019-0.044 0.036-0.087 0.054-0.131l0.021-0.052c0.015-0.039 0.029-0.077 0.044-0.116l0.025-0.066c0.012-0.035 0.025-0.07 0.037-0.105 9e-3 -0.027 0.018-0.053 0.027-0.079 0.011-0.033 0.022-0.066 0.032-0.1 9e-3 -0.028 0.018-0.056 0.027-0.085 0.01-0.032 0.02-0.064 0.029-0.096 9e-3 -0.03 0.017-0.059 0.025-0.088 9e-3 -0.03 0.017-0.061 0.025-0.092 9e-3 -0.032 0.018-0.065 0.026-0.098l0.021-0.084c8e-3 -0.034 0.016-0.068 0.024-0.101 6e-3 -0.029 0.012-0.057 0.018-0.085 8e-3 -0.035 0.015-0.07 0.022-0.106 5e-3 -0.025 0.01-0.051 0.015-0.077 7e-3 -0.038 0.014-0.076 0.021-0.113 4e-3 -0.024 8e-3 -0.048 0.011-0.071 7e-3 -0.04 0.013-0.08 0.019-0.119 4e-3 -0.023 7e-3 -0.046 0.01-0.069 6e-3 -0.041 0.011-0.082 0.016-0.124l7e-3 -0.057c5e-3 -0.045 0.01-0.091 0.015-0.136l3e-3 -0.041c0.022-0.235 0.033-0.473 0.033-0.713 0-1.489-0.423-2.88-1.155-4.062l-0.026-0.041c-0.018-0.029-0.036-0.058-0.054-0.086-0.716-1.114-1.726-2.059-2.989-2.703-1.099-0.56-2.279-0.844-3.505-0.844m0.836-3.991c-0.129 0-0.248 6e-3 -0.354 0.018-1.569 0.045-3.913 0.404-6.961 1.066l-0.018 7e-3c-2.412 1.296-4.691 2.845-6.779 4.604v-7.877h26.753v8.986l-0.018-0.021c-1.81-2.032-3.55-3.614-5.476-4.978l-0.018-9e-3c-3.481-1.192-5.88-1.796-7.129-1.796m-14.112 16.436c2.108 2.054 4.41 3.927 6.844 5.569l0.024 0.01c2.12 0.467 4.703 0.778 7.676 0.925h0.01l0.01-2e-3c3.018-0.706 7.108-2.666 12.156-5.828l0.033-0.021v8.193h-26.753z"/><path d="m324.98 151.52h30.586v-31.083h-30.586zm16.056-29.167-5.895 3.215-0.01 0.026c-0.529 1.523-1.106 3.801-1.139 5.629 0.12 0.785 0.503 1.985 1.141 3.576l0.017 0.025 2.176 2.031 0.048-0.043 2.721-2.38v1.584l-2.583 2.08 0.043 0.055 1.823 2.333 0.057-0.054 3.068-2.997 4e-3 -0.023 0.5-2.857-7e-3 -0.018-1.309-3.565-1.883 1.356 0.122 1.161-1.823-2.148-0.068-1.56 4.202-1.86 2.818 15.923-1.172 1.931c-0.959 0.03-1.793 0.07-2.53 0.105-0.892 0.043-1.596 0.076-2.165 0.076-0.562 0-0.945-0.035-1.206-0.108-0.844-0.429-1.548-1.038-2.08-1.803l-0.432-3.596-2.26 0.076-2e-3 0.066-0.214 5.349 2.195 2.69c-2e-3 0.023 1e-3 0.05 0.015 0.08 0.076 0.159 0.494 0.442 2.996 1.109h-11.237v-27.464zm2.201 27.464 4.15-1.648 1.224-2.75c0.054-2.256-0.136-4.666-0.566-7.164 0.151-0.486-0.478-2.12-1.919-4.993l-0.782-8.452-0.013-0.017-1.926-2.44h10.315v27.464zm-8.464-8.658h-0.781l-0.07 3.763c-0.039 2.041 2.266 3.46 5.038 3.547l4.542 0.142c2.034-0.203 3.406-1.338 4.116-3.407 0.249-3.009-0.058-5.459-0.854-7.379-0.708-1.704-1.149-3.771-1.772-6.175l-0.568-6.6-1.49-1.845c-5.243 1.179-7.23 3.185-7.597 5.962-0.28 2.128 0.358 4.226 2.274 6.599l1.633-1.703-1.916-2.271 0.07-2.91 5.252-2.129c1.645 6.568 2.757 10.802 3.335 12.703l0.071 5.11c-0.47 1.406-1.369 2.163-2.696 2.27l-5.678-0.071c-2.106-0.29-3.077-2.159-2.909-5.606m3.619-2.909 1.065 1.277c2.341-2.063 3.312-3.789 2.909-5.181l-0.923-2.412-0.78 0.567 0.355 3.407z"/><path d="m359.52 151.52h30.586v-31.083h-30.586zm16.268-26.825h-6e-3c-2.451 0.067-4.937 0.33-7.391 0.782l-0.02 4e-3 -0.015 0.013c-2.545 2.308-4.849 4.379-6.85 6.16v-9.301h26.754v9.198c-1.881-1.788-4.508-3.872-7.822-6.204l-0.031-0.012zm-14.282 16.276 3.961 4.157 5.774 2.418 6.684 0.142 0.013-4e-3 4.155-1.539 1.474-1.313c2.189-1.909 3.765-3.154 4.693-3.711v8.696h-26.754zm13.365-13.83c-4.665 0-9.16 2.968-13.365 8.82v-3.094c8.827-9.335 17.745-9.37 26.754-0.106v2.786c-4.338-5.578-8.84-8.406-13.389-8.406m-13.365 9.45c3.306 5.054 7.198 7.927 11.572 8.542l0.052 7e-3 1.874-4.095 1.946 4.17 0.056-0.012c4.183-0.944 7.967-3.833 11.254-8.589v3.083c-8.714 9.268-17.632 9.161-26.754-0.324zm13.356 2.084-2.839 5.465c-2.867-0.954-5.741-3.461-8.622-7.523h23.886c-3.104 3.925-6.275 6.456-9.516 7.594zm-11.288-3.193c4.531-7.884 15.054-11.309 23.43 0z"/><path d="m359.52 186.72h30.586v-31.083h-30.586zm16.537-28.62c0.079-0.046 0.143-0.097 0.196-0.149 0.012 8e-3 0.025 0.017 0.04 0.026 0.437 0.237 0.933 0.299 1.64 0.243 0.755 0.019 1.42 0.631 1.978 1.873l0.123 0.274 0.228 0.036c7e-3 0.028 0.016 0.073 0.021 0.139 6e-3 0.072 0.022 0.143 0.041 0.217 2e-3 8e-3 4e-3 0.012 6e-3 0.013l-0.116 0.209 0.101 0.274c0.16 0.356 0.388 0.571 0.68 0.641 0.198 0.041 0.232 0.105 0.245 0.129 0.037 0.07 0.133 0.361-0.201 1.199l-0.137 0.344 0.266 0.259c0.168 0.164 0.292 0.31 0.404 0.44 0.185 0.216 0.359 0.42 0.629 0.605l0.132 0.091 0.16 6e-3c0.19 7e-3 0.277 0.044 0.294 0.057l0.06 0.127 0.097 0.062c0.151 0.112 0.217 0.192 0.244 0.234-4e-3 0.02-9e-3 0.04-0.013 0.06l-0.019 0.103-0.116 1.188c-0.206 0.294-0.314 0.678-0.321 1.145l-2e-3 0.102c-0.043 0.04-0.082 0.086-0.114 0.137-0.207 0.334-0.08 0.743 0.173 1.254l0.037 0.062c0.473 0.707 0.954 1.328 1.428 1.848l0.107 0.091c1.115 0.723 1.852 1.585 2.193 2.56l0.027 0.066 0.099 0.196c-0.336-0.085-0.735-0.167-1.203-0.249-0.097-0.033-0.195-0.049-0.291-0.049-0.409 0-0.692 0.279-0.915 0.553l-0.227 0.279 0.113 0.223c-0.063 0.105-0.277 0.377-0.968 0.873-0.396 0.159-0.536 0.65-0.588 0.831l-0.021 0.131c-7e-3 0.184-0.05 0.195-0.138 0.217l-0.362 0.091-0.213 1.534 2e-3 0.018c-0.015 0.023-0.045 0.062-0.102 0.117-0.297 0.163-0.497 0.552-0.718 1.132l-0.815 1.871c-0.016 0.121-0.045 0.227-0.088 0.321-0.041-0.016-0.086-0.034-0.138-0.055-0.383-0.167-0.802-0.155-1.151 0.047-0.177 0.078-0.378 0.1-0.601 0.068l-0.133-0.018-0.126 0.044c-0.4 0.14-0.705 0.266-0.934 0.386l-0.223 0.117c-4e-3 -2e-3 -7e-3 -3e-3 -0.011-4e-3 -0.03-0.339-0.129-0.586-0.305-0.764-0.158-0.16-0.372-0.249-0.602-0.249l-0.166 0.017c-0.567 0.13-1.037 0.318-1.398 0.559l-0.103 0.069-0.063 0.106c-0.17 0.283-0.313 0.283-0.381 0.283-0.021 0-0.041-1e-3 -0.063-4e-3l-0.057-7e-3 -0.058 5e-3c-0.388 0.034-0.86 0.119-1.08 0.476-4e-3 6e-3 -5e-3 9e-3 -4e-3 0.01-0.289 0.077-0.426 0.236-0.493 0.36-0.097 0.178-0.108 0.389-0.032 0.594l0.04 0.108 0.178 0.185c-0.012 0.027-0.022 0.053-0.031 0.079-0.205-0.063-0.357-0.039-0.666-3e-3l-0.161 0.044c-0.031 0.013-0.057 0.023-0.078 0.031-0.205-0.157-0.492-0.191-0.758-0.068-0.328 0.083-0.764 3e-3 -1.286-0.238l-0.408-0.227c-0.198-0.171-0.451-0.267-0.738-0.278l-0.282-0.011-0.079 0.1c-0.045 2e-3 -0.115 1e-3 -0.189-2e-3 -0.145-0.068-0.299-0.092-0.496-0.022-0.133-0.271-0.304-0.582-0.682-0.675-0.111-0.046-0.173-0.079-0.204-0.098v-1e-3l-0.239-0.369c0.077-0.208 0.091-0.436 0.032-0.658l-0.028-0.105-0.519-0.693c-0.27-0.337-0.567-0.465-0.81-0.507-0.041-0.05-0.113-0.147-0.218-0.326l-0.065-0.111-0.108-0.071c-0.017-0.011-0.032-0.022-0.045-0.031-0.091-0.401-0.269-0.742-0.531-1.016-0.113-0.177-0.345-0.547-0.363-0.669l0.096-0.113 0.209-0.148c0.087-0.287 0.121-0.266 0.139-0.482l-0.098-0.538c-0.058-0.429-0.176-0.807-0.352-1.119 0.111-0.239 0.161-0.456 0.15-0.65 0.182-0.194 0.388-0.375 0.614-0.539 0.419-0.352 0.604-0.648 0.631-0.985 2e-3 -0.022 3e-3 -0.044 0.077-0.061l0.056-0.016c0.349-0.119 0.753-0.399 1.237-0.853l0.088-0.107c0.042-0.016 0.11-0.011 0.232 0.039 0.415 0.167 0.703 0.201 1.353 0.18l0.092-4e-3 0.087-0.032c0.167-0.064 0.234-0.053 0.41 0.031 0.065 0.032 0.128 0.059 0.188 0.081l0.802 0.35c0.341 0.085 0.655 0.102 0.936 0.051 0.478 0.057 0.73-0.11 0.863-0.247 0.085-0.089 0.182-0.231 0.216-0.44 0.013 7e-3 0.027 0.015 0.042 0.024l0.12 0.068 0.217 6e-3c0.448 0 0.685-0.154 0.811-0.321 0.241-0.169 0.487-0.398 0.541-0.714 0.03-0.169-1e-3 -0.338-0.086-0.485-7e-3 -0.018-0.014-0.035-0.02-0.051l0.031-0.01-0.027-0.426c-0.014-0.207-0.059-0.403-0.135-0.584 0.119-0.202 0.334-0.482 0.721-0.848 0.201-0.21 0.596-0.625 0.509-1.055 0.081-1.002 0.288-1.327 0.375-1.421l0.211-0.227-0.083-0.298c-0.115-0.418-0.283-0.732-0.509-0.954-0.242-0.762-0.235-1.002-0.231-1.044l0.013-0.136-0.024-0.057c0.018-0.039 0.057-0.112 0.146-0.224l0.069-0.112c0.215-0.466 0.419-0.816 0.605-1.04l0.12-0.143 8e-3 -0.187c0.065-1.464 0.237-1.915 0.303-2.038l0.155-0.039 0.114-0.224c0.342-0.675 0.495-0.926 0.555-1.016l0.149-0.076 0.053-0.261c0.062-0.302 0.109-0.663 1e-3 -0.967m9.332 3.747c8e-3 -9e-3 0.016-0.016 0.023-0.022l0.028 4e-3c0.134 0.02 0.174 0.052 0.174 0.052l0.018 0.131c0.241 0.669 0.326 1.011 0.355 1.182l0.016 0.096 0.048 0.085c0.121 0.212 0.275 0.631 0.365 1.447-0.173-0.086-0.409-0.183-0.717-0.296l-0.076-0.021-0.037-0.083-0.092-0.06c0.138-0.449 0.18-0.806 0.131-1.09l-0.024-0.142-0.09-0.111c-0.109-0.135-0.209-0.297-0.3-0.482 2e-3 -0.051 0.011-0.097 0.028-0.138l0.04-0.172c0.01-0.168 0.056-0.266 0.093-0.344 5e-3 -0.011 0.011-0.023 0.017-0.036m-5e-3 -1.149c-0.325 0-0.631 0.172-0.909 0.51l-0.145 0.176 9e-3 0.094c-0.06 0.136-0.131 0.329-0.159 0.592-0.068 0.205-0.091 0.425-0.069 0.655l9e-3 0.091 0.037 0.083c0.111 0.246 0.238 0.469 0.378 0.666-6e-3 0.089-0.029 0.237-0.099 0.467-0.113 0.195-0.205 0.553 0.181 1.012 0.149 0.268 0.406 0.456 0.735 0.536 0.158 0.058 0.292 0.11 0.401 0.157l0.027 0.11c0.015 0.109 0.102 0.354 0.413 0.521 0.054 0.192 0.187 0.53 0.55 0.61l0.399 0.088 0.454-0.816c0.105-0.284 0.167-0.834 0.183-0.996l0.01-0.1-0.28-1.062c-0.108 0.077-0.299-0.891-0.448-1.178-0.059-0.298-0.18-0.7-0.366-1.22-0.046-0.291-0.242-0.809-1.031-0.951-0.09-0.03-0.184-0.045-0.28-0.045m-10.346-3.145c-0.166 0.357-0.176 0.665-0.032 0.92l6e-3 9e-3c2e-3 0.032 2e-3 0.099-0.016 0.217-0.126 0.17-0.303 0.473-0.603 1.057-0.457 0.317-0.682 1.14-0.765 2.739-0.202 0.274-0.404 0.628-0.613 1.074-0.293 0.388-0.405 0.745-0.334 1.065-4e-3 0.34 0.102 0.819 0.335 1.522l0.056 0.17 0.144 0.105c0.03 0.022 0.094 0.083 0.163 0.241-0.256 0.429-0.406 1.053-0.466 1.926l-2e-3 0.034c-0.032 0.042-0.085 0.108-0.175 0.202-0.547 0.516-0.906 0.997-1.077 1.451l-0.103 0.271 0.164 0.238c0.033 0.048 0.058 0.101 0.076 0.158-0.086 0.222-0.065 0.484 0.074 0.869-0.026 0.018-0.057 0.039-0.094 0.063l-0.065 0.042c-0.202-0.094-0.389-0.139-0.565-0.139-0.172 0-0.715 0.056-0.898 0.742l-0.065-0.012-0.118 0.031c-0.119 0.031-0.278 0.025-0.464-0.017l-0.748-0.33c-0.024-9e-3 -0.05-0.022-0.077-0.036-0.151-0.072-0.379-0.181-0.701-0.181-0.157 0-0.32 0.027-0.487 0.081-0.437 0.013-0.598-0.014-0.814-0.101-0.643-0.265-1.206-0.135-1.541 0.327-0.42 0.39-0.659 0.521-0.773 0.565-0.512 0.131-0.854 0.525-0.898 1.037-1e-3 2e-3 -0.04 0.064-0.209 0.208-0.356 0.256-0.699 0.579-0.985 0.935l-0.295 0.366 0.217 0.242c-0.021 0.052-0.061 0.134-0.136 0.251l-0.217 0.342 0.261 0.312c0.164 0.196 0.276 0.501 0.331 0.905l0.012 0.066c-0.125 0.2-0.162 0.376-0.143 0.581-0.098 0.102-0.167 0.217-0.2 0.316l-0.032 0.097 4e-3 0.101c0.015 0.373 0.245 0.758 0.568 1.262l0.08 0.098c0.118 0.115 0.2 0.259 0.252 0.438-6e-3 0.199 0.082 0.453 0.427 0.713 0.257 0.419 0.507 0.702 0.849 0.746 0.075 5e-3 0.12 6e-3 0.195 0.1l0.335 0.448c-0.118 0.348-0.075 0.649 0.103 0.895l0.238 0.368c0.14 0.286 0.457 0.447 0.784 0.578 0.024 0.044 0.056 0.11 0.083 0.165l0.09 0.182c0.043 0.084 0.136 0.266 0.293 0.409h-4.961v-27.464zm-1.809 27.464 9e-3 -0.045 0.103-0.083 0.082-0.218c0.069-0.308-5e-3 -0.515-0.104-0.647 0.034-0.035 0.068-0.075 0.101-0.119 0.042-0.012 0.118-0.029 0.247-0.042 0.044 4e-3 0.088 6e-3 0.131 6e-3 0.359 0 0.857-0.126 1.254-0.702 0.177-0.104 0.396-0.194 0.653-0.27l-0.049 0.09 0.104 0.3c0.13 0.302 0.45 0.441 0.925 0.567l0.089 0.024 0.093-7e-3c0.245-0.017 0.687-0.049 0.901-0.361 0.13-0.056 0.285-0.118 0.465-0.182 0.398 0.032 0.77-0.031 1.106-0.19l0.055-0.03c0.089-0.055 0.105-0.016 0.17 0.012 0.392 0.161 0.636 0.228 0.827 0.228 0.238 0 0.441-0.106 0.557-0.291 0.028-0.045 0.072-0.129 0.087-0.243 0.135-0.223 0.226-0.475 0.272-0.753l0.752-1.674c0.128-0.333 0.212-0.497 0.258-0.575l0.108-0.094c0.374-0.328 0.557-0.666 0.545-1.006l0.1-0.717c0.351-0.207 0.563-0.564 0.6-1.023 0.013-0.042 0.024-0.073 0.034-0.098l0.04-0.027c0.741-0.524 1.462-1.124 1.53-1.743 0.663 0.116 1.182 0.234 1.544 0.352 0.479 0.305 0.929 0.242 1.159-0.088 0.158-0.227 0.17-0.525 0.036-0.885l-0.024-0.055-0.414-0.828c-0.421-1.18-1.283-2.206-2.562-3.051-0.415-0.461-0.839-1.011-1.259-1.635-0.035-0.072-0.062-0.131-0.082-0.18l0.02-0.052c0.156-0.311 0.202-0.586 0.139-0.82 0.014-0.217 0.065-0.376 0.147-0.463l0.131-0.138 0.152-1.533c0.032-0.157 0.08-0.394-0.031-0.668-0.098-0.237-0.272-0.455-0.533-0.664-0.154-0.229-0.44-0.459-0.976-0.52-0.101-0.088-0.192-0.195-0.307-0.33-0.068-0.079-0.14-0.162-0.221-0.252 0.253-0.762 0.26-1.351 0.023-1.793-0.115-0.216-0.341-0.487-0.774-0.631 0.011-0.167-0.023-0.303-0.045-0.388-0.054-0.626-0.326-0.917-0.573-1.053-0.421-0.869-0.924-1.495-1.506-1.876h8.942v27.464z"/></g><g transform="translate(334.77 141.16)"><path d="m0 0h-0.781l-0.07 3.763c-0.039 2.041 2.266 3.459 5.038 3.546l4.542 0.143c2.034-0.203 3.406-1.338 4.116-3.407 0.249-3.009-0.058-5.459-0.854-7.379-0.707-1.704-1.149-3.771-1.772-6.175l-0.568-6.6-1.49-1.845c-5.243 1.178-7.23 3.185-7.597 5.962-0.28 2.128 0.358 4.226 2.275 6.599l1.632-1.704-1.916-2.27 0.07-2.91 5.252-2.129c1.646 6.568 2.757 10.802 3.335 12.703l0.072 5.109c-0.471 1.407-1.37 2.164-2.697 2.271l-5.677-0.071c-2.107-0.29-3.078-2.159-2.91-5.606" fill="#fff"/></g><g transform="translate(338.39 138.25)"><path d="m0 0 1.065 1.277c2.341-2.062 3.312-3.789 2.909-5.18l-0.923-2.413-0.78 0.568 0.355 3.406z" fill="#eebe1c"/></g><path d="m310.28 97.142h221.33v-1.966h-221.33z" fill="#a05a09" fill-rule="evenodd"/><g transform="translate(312.36 59.466)"><path d="m0 0v-5.199h1.334c0.865 0 1.527 0.238 1.985 0.714s0.687 1.103 0.687 1.882c0 0.808-0.232 1.443-0.696 1.907-0.464 0.463-1.131 0.696-2 0.696zm-2.044 1.503h3.619c1.398 0 2.503-0.382 3.315-1.149 0.813-0.765 1.219-1.755 1.219-2.968 0-1.273-0.412-2.273-1.237-2.998-0.824-0.727-1.999-1.09-3.527-1.09h-3.389z" fill="#a05a09"/></g><g transform="translate(321.35 56.176)"><path d="m0 0h2.408c-0.094 0.808-0.495 1.21-1.204 1.21-0.717 0-1.118-0.402-1.204-1.21m3.847-1.691v-1.098c-0.666-0.486-1.49-0.729-2.473-0.729-0.975 0-1.754 0.262-2.338 0.785-0.583 0.523-0.875 1.216-0.875 2.078 0 0.848 0.274 1.543 0.822 2.089 0.549 0.544 1.248 0.817 2.097 0.817 0.854 0 1.554-0.288 2.101-0.861 0.546-0.574 0.801-1.342 0.766-2.306h-3.983c0.036-0.503 0.214-0.89 0.535-1.161s0.752-0.407 1.293-0.407c0.653 0 1.339 0.265 2.055 0.793" fill="#a05a09"/></g><g transform="translate(328.13 56.74)"><path d="m0 0v-2.549c0.329-0.243 0.665-0.365 1.011-0.365 0.423 0 0.758 0.152 1.006 0.456 0.25 0.304 0.374 0.714 0.374 1.231 0 0.529-0.115 0.939-0.344 1.234-0.229 0.293-0.551 0.439-0.966 0.439-0.348 0-0.709-0.148-1.081-0.446m0 1.569v-0.482c0.466 0.4 0.995 0.6 1.586 0.6 0.72 0 1.33-0.273 1.827-0.818s0.746-1.213 0.746-2.005c0-0.891-0.25-1.604-0.749-2.14-0.499-0.537-1.16-0.806-1.983-0.806-0.509 0-0.985 0.128-1.427 0.382v-3.043h-1.744v8.312z" fill="#a05a09"/></g><g transform="translate(336.4 54.11)"><path d="m0 0v1.344c-0.584-0.204-0.984-0.388-1.202-0.551-0.216-0.163-0.325-0.37-0.325-0.622 0-0.16 0.054-0.3 0.164-0.415 0.109-0.116 0.243-0.174 0.4-0.174 0.328 0 0.649 0.14 0.963 0.418m2.69 0.023v-0.969c-0.579-0.337-1.124-0.505-1.633-0.505-0.548 0-0.873 0.206-0.975 0.623-0.607-0.417-1.216-0.623-1.826-0.623-0.432 0-0.798 0.135-1.099 0.408-0.301 0.272-0.453 0.59-0.453 0.95 0 0.483 0.156 0.872 0.468 1.168 0.311 0.297 1.253 0.678 2.828 1.144 0.039 0.619-0.282 0.929-0.963 0.929-0.74 0-1.422-0.31-2.044-0.929v1.422c0.728 0.45 1.528 0.676 2.402 0.676 1.566 0 2.349-0.563 2.349-1.688v-2.529c0-0.259 0.096-0.389 0.289-0.389 0.144 0 0.363 0.104 0.657 0.312" fill="#a05a09"/></g><g transform="translate(341.61 58.309)"><path d="m0 0v-1.587h0.024c0.505 1.136 1.094 1.705 1.768 1.705 0.321 0 0.707-0.169 1.157-0.506l-0.482-1.545c-0.43 0.275-0.775 0.412-1.033 0.412-0.404 0-0.744-0.251-1.02-0.751-0.276-0.499-0.414-0.791-0.414-0.873v-2.4h-1.744v5.545z" fill="#a05a09"/></g><g transform="translate(349.43 58.309)"><path d="m0 0v-1.193h-2.021v-2.285c0-0.274 0.075-0.49 0.226-0.649s0.359-0.238 0.626-0.238c0.36 0 0.749 0.108 1.169 0.323v-1.262c-0.557-0.232-1.095-0.347-1.616-0.347-0.681 0-1.209 0.176-1.586 0.529-0.376 0.352-0.563 0.869-0.563 1.55v2.379h-0.794v0.341l2.321 2.596h0.217v-1.744z" fill="#a05a09"/></g><g transform="translate(352.11 58.309)"><path d="m0 0v-0.711c0.591 0.552 1.234 0.829 1.928 0.829 0.952 0 1.618-0.395 1.999-1.182 0.669 0.787 1.399 1.182 2.186 1.182 0.639 0 1.16-0.195 1.563-0.584 0.404-0.387 0.606-0.892 0.606-1.517v-3.562h-1.744v3.252c0 0.393-0.09 0.697-0.271 0.914-0.181 0.218-0.432 0.327-0.754 0.327-0.51 0-0.969-0.313-1.378-0.94v-3.553h-1.738v3.287c0 0.389-0.097 0.686-0.291 0.894s-0.451 0.312-0.773 0.312c-0.457 0-0.902-0.257-1.333-0.77v-3.723h-1.744v5.545z" fill="#a05a09"/></g><g transform="translate(363.42 56.176)"><path d="m0 0h2.408c-0.094 0.808-0.495 1.21-1.204 1.21-0.717 0-1.118-0.402-1.204-1.21m3.847-1.691v-1.098c-0.666-0.486-1.49-0.729-2.473-0.729-0.975 0-1.754 0.262-2.338 0.785-0.583 0.523-0.875 1.216-0.875 2.078 0 0.848 0.274 1.543 0.822 2.089 0.549 0.544 1.248 0.817 2.097 0.817 0.854 0 1.554-0.288 2.101-0.861 0.546-0.574 0.801-1.342 0.766-2.306h-3.983c0.036-0.503 0.214-0.89 0.535-1.161s0.752-0.407 1.293-0.407c0.653 0 1.339 0.265 2.055 0.793" fill="#a05a09"/></g><g transform="translate(370.24 58.309)"><path d="m0 0v-0.787c0.513 0.602 1.114 0.905 1.803 0.905 0.575 0 1.057-0.185 1.442-0.554 0.385-0.368 0.578-0.895 0.578-1.581v-3.528h-1.744v3.382c0 0.74-0.288 1.111-0.863 1.111-0.412 0-0.817-0.305-1.216-0.916v-3.577h-1.745v5.545z" fill="#a05a09"/></g><g transform="translate(379.49 58.309)"><path d="m0 0v-1.193h-2.021v-2.285c0-0.274 0.075-0.49 0.226-0.649s0.359-0.238 0.626-0.238c0.36 0 0.749 0.108 1.169 0.323v-1.262c-0.557-0.232-1.095-0.347-1.616-0.347-0.681 0-1.209 0.176-1.586 0.529-0.376 0.352-0.563 0.869-0.563 1.55v2.379h-0.794v0.341l2.321 2.596h0.217v-1.744z" fill="#a05a09"/></g><g transform="translate(386.59 53.692)"><path d="m0 0c0.834 0 1.251 0.63 1.251 1.888 0 1.205-0.417 1.806-1.251 1.806-0.4 0-0.712-0.159-0.937-0.476-0.225-0.318-0.338-0.773-0.338-1.366 0-1.235 0.425-1.852 1.275-1.852m0 4.735c0.869 0 1.606-0.256 2.211-0.766 0.605-0.509 0.908-1.218 0.908-2.127 0-0.914-0.307-1.622-0.922-2.124-0.615-0.501-1.347-0.752-2.197-0.752-0.92 0-1.673 0.267-2.258 0.802-0.586 0.536-0.879 1.23-0.879 2.084 0 0.871 0.299 1.568 0.896 2.094s1.344 0.789 2.241 0.789" fill="#a05a09"/></g><g transform="translate(392.88 58.309)"><path d="m0 0h0.793v-1.193h-0.793v-4.352h-1.744v4.352h-0.793v1.193h0.793v0.275c0 0.779 0.22 1.39 0.658 1.831 0.438 0.439 1.03 0.66 1.773 0.66 0.181 0 0.533-0.034 1.057-0.106v-1.409c-0.364 0.047-0.624 0.07-0.78 0.07-0.642 0-0.964-0.323-0.964-0.969z" fill="#a05a09"/></g><g transform="translate(403.61 60.441)"><path d="m0 0v-1.603c-1.089 0.488-1.955 0.734-2.601 0.734-0.369 0-0.662-0.062-0.879-0.185-0.217-0.124-0.326-0.288-0.326-0.49 0-0.158 0.078-0.306 0.235-0.447 0.156-0.141 0.538-0.323 1.145-0.546 0.608-0.223 1.092-0.431 1.457-0.623 0.364-0.192 0.679-0.462 0.943-0.811s0.396-0.788 0.396-1.321c0-0.76-0.289-1.365-0.866-1.815-0.577-0.451-1.339-0.676-2.282-0.676-1.019 0-2.005 0.265-2.96 0.793v1.768c0.547-0.368 1.033-0.637 1.457-0.805 0.423-0.169 0.87-0.252 1.344-0.252 0.802 0 1.205 0.252 1.205 0.757 0 0.173-0.081 0.334-0.241 0.487-0.162 0.152-0.548 0.339-1.161 0.558-0.612 0.219-1.098 0.423-1.457 0.61-0.357 0.189-0.667 0.458-0.927 0.805-0.261 0.35-0.391 0.796-0.391 1.341 0 0.705 0.284 1.273 0.851 1.706 0.568 0.433 1.328 0.649 2.28 0.649 0.878 0 1.803-0.211 2.778-0.634" fill="#a05a09"/></g><g transform="translate(406.83 56.74)"><path d="m0 0v-2.549c0.329-0.243 0.665-0.365 1.01-0.365 0.424 0 0.759 0.152 1.008 0.456 0.248 0.304 0.373 0.714 0.373 1.231 0 0.529-0.115 0.939-0.344 1.234-0.229 0.293-0.551 0.439-0.967 0.439-0.348 0-0.708-0.148-1.08-0.446m0 1.569v-0.482c0.466 0.4 0.994 0.6 1.586 0.6 0.721 0 1.329-0.273 1.827-0.818 0.497-0.545 0.745-1.213 0.745-2.005 0-0.891-0.249-1.604-0.749-2.14-0.498-0.537-1.159-0.806-1.981-0.806-0.509 0-0.986 0.128-1.428 0.382v-3.043h-1.744v8.312z" fill="#a05a09"/></g><g transform="translate(414.99 53.692)"><path d="m0 0c0.834 0 1.251 0.63 1.251 1.888 0 1.205-0.417 1.806-1.251 1.806-0.4 0-0.712-0.159-0.937-0.476-0.225-0.318-0.338-0.773-0.338-1.366 0-1.235 0.425-1.852 1.275-1.852m0 4.735c0.869 0 1.606-0.256 2.211-0.766 0.605-0.509 0.908-1.218 0.908-2.127 0-0.914-0.308-1.622-0.923-2.124-0.615-0.501-1.347-0.752-2.196-0.752-0.92 0-1.673 0.267-2.259 0.802-0.585 0.536-0.878 1.23-0.878 2.084 0 0.871 0.299 1.568 0.896 2.094s1.344 0.789 2.241 0.789" fill="#a05a09"/></g><g transform="translate(421.07 58.309)"><path d="m0 0v-1.587h0.023c0.506 1.136 1.096 1.705 1.769 1.705 0.321 0 0.707-0.169 1.157-0.506l-0.482-1.545c-0.431 0.275-0.775 0.412-1.033 0.412-0.404 0-0.744-0.251-1.019-0.751-0.277-0.499-0.415-0.791-0.415-0.873v-2.4h-1.745v5.545z" fill="#a05a09"/></g><g transform="translate(428.89 58.309)"><path d="m0 0v-1.193h-2.02v-2.285c0-0.274 0.076-0.49 0.226-0.649 0.151-0.159 0.359-0.238 0.626-0.238 0.36 0 0.749 0.108 1.168 0.323v-1.262c-0.556-0.232-1.094-0.347-1.614-0.347-0.682 0-1.211 0.176-1.587 0.529-0.375 0.352-0.564 0.869-0.564 1.55v2.379h-0.793v0.341l2.321 2.596h0.217v-1.744z" fill="#a05a09"/></g><g transform="translate(429.67 50.732)"><path d="m0 0v0.37c0.371 0.356 0.557 0.809 0.557 1.357 0 0.067-4e-3 0.132-0.011 0.199-0.412 0.157-0.617 0.448-0.617 0.875 0 0.274 0.094 0.501 0.282 0.682 0.187 0.18 0.423 0.27 0.705 0.27 0.352 0 0.641-0.129 0.867-0.385 0.224-0.256 0.337-0.586 0.337-0.99 0-0.579-0.199-1.102-0.596-1.568s-0.907-0.736-1.524-0.81" fill="#a05a09"/></g><g transform="translate(442.5 55.819)"><path d="m0 0-1.331 3.189-1.205-3.189zm-0.174 5.151 3.645-8.206h-2.198l-0.676 1.621h-3.675l-0.612-1.621h-2.166l3.315 8.206z" fill="#a05a09"/></g><g transform="translate(448.51 58.309)"><path d="m0 0v-1.587h0.023c0.506 1.136 1.096 1.705 1.769 1.705 0.321 0 0.707-0.169 1.157-0.506l-0.482-1.545c-0.431 0.275-0.775 0.412-1.033 0.412-0.404 0-0.744-0.251-1.019-0.751-0.277-0.499-0.415-0.791-0.415-0.873v-2.4h-1.744v5.545z" fill="#a05a09"/></g><g transform="translate(456.34 58.309)"><path d="m0 0v-1.193h-2.02v-2.285c0-0.274 0.076-0.49 0.226-0.649 0.151-0.159 0.359-0.238 0.626-0.238 0.36 0 0.749 0.108 1.168 0.323v-1.262c-0.556-0.232-1.094-0.347-1.614-0.347-0.682 0-1.211 0.176-1.587 0.529-0.375 0.352-0.564 0.869-0.564 1.55v2.379h-0.793v0.341l2.321 2.596h0.217v-1.744z" fill="#a05a09"/></g><g transform="translate(461.05 58.015)"><path d="m0 0v-1.239c-0.665 0.406-1.283 0.61-1.85 0.61-0.42 0-0.628-0.142-0.628-0.428 0-0.074 0.044-0.148 0.131-0.221 0.089-0.072 0.426-0.225 1.013-0.458 0.588-0.234 1.003-0.504 1.246-0.811 0.243-0.305 0.364-0.641 0.364-1.005 0-0.576-0.197-1.021-0.587-1.335-0.393-0.313-0.95-0.469-1.674-0.469-0.745 0-1.407 0.134-1.986 0.405v1.227c0.712-0.312 1.311-0.47 1.791-0.47 0.564 0 0.846 0.137 0.846 0.411 0 0.105-0.052 0.204-0.156 0.298-0.104 0.093-0.454 0.258-1.049 0.491-0.594 0.231-1.002 0.487-1.221 0.765-0.219 0.279-0.328 0.589-0.328 0.93 0 0.505 0.21 0.917 0.631 1.235 0.421 0.317 0.976 0.476 1.665 0.476 0.662 0 1.259-0.138 1.792-0.412" fill="#a05a09"/></g><g transform="translate(468.68 54.11)"><path d="m0 0v1.344c-0.583-0.204-0.983-0.388-1.201-0.551s-0.326-0.37-0.326-0.622c0-0.16 0.055-0.3 0.165-0.415 0.109-0.116 0.242-0.174 0.4-0.174 0.328 0 0.65 0.14 0.962 0.418m2.69 0.023v-0.969c-0.579-0.337-1.124-0.505-1.632-0.505-0.549 0-0.873 0.206-0.976 0.623-0.606-0.417-1.216-0.623-1.826-0.623-0.43 0-0.797 0.135-1.098 0.408-0.302 0.272-0.452 0.59-0.452 0.95 0 0.483 0.155 0.872 0.467 1.168 0.31 0.297 1.254 0.678 2.827 1.144 0.04 0.619-0.282 0.929-0.962 0.929-0.741 0-1.422-0.31-2.045-0.929v1.422c0.729 0.45 1.529 0.676 2.403 0.676 1.565 0 2.35-0.563 2.35-1.688v-2.529c0-0.259 0.096-0.389 0.287-0.389 0.145 0 0.364 0.104 0.657 0.312" fill="#a05a09"/></g><g transform="translate(473.84 58.309)"><path d="m0 0v-0.787c0.512 0.602 1.113 0.905 1.803 0.905 0.575 0 1.056-0.185 1.442-0.554 0.386-0.368 0.579-0.895 0.579-1.581v-3.528h-1.746v3.382c0 0.74-0.287 1.111-0.862 1.111-0.411 0-0.816-0.305-1.216-0.916v-3.577h-1.744v5.545z" fill="#a05a09"/></g><g transform="translate(482.94 54.285)"><path d="m0 0v2.649c-0.318 0.215-0.642 0.323-0.975 0.323-0.438 0-0.78-0.153-1.025-0.458-0.244-0.306-0.367-0.734-0.367-1.286 0-0.509 0.122-0.917 0.364-1.225 0.242-0.307 0.566-0.462 0.969-0.462 0.356 0 0.701 0.154 1.034 0.459m1.744 6.684v-8.205h-1.744v0.446c-0.446-0.368-0.96-0.552-1.539-0.552-0.739 0-1.358 0.274-1.852 0.823-0.496 0.549-0.744 1.237-0.744 2.063 0 0.848 0.252 1.54 0.754 2.076 0.504 0.537 1.149 0.807 1.937 0.807 0.488 0 0.97-0.118 1.444-0.354v2.896z" fill="#a05a09"/></g><g transform="translate(497.31 55.267)"><path d="m0 0v-1.792c-1.027-0.544-2.102-0.816-3.224-0.816-1.457 0-2.618 0.402-3.481 1.206-0.864 0.805-1.295 1.796-1.295 2.975s0.454 2.18 1.365 3.001c0.911 0.823 2.1 1.234 3.568 1.234 1.172 0 2.162-0.241 2.972-0.722v-1.827c-0.994 0.56-1.935 0.84-2.824 0.84-0.874 0-1.587-0.234-2.141-0.702-0.555-0.467-0.832-1.064-0.832-1.788 0-0.729 0.273-1.33 0.819-1.804 0.547-0.473 1.247-0.71 2.1-0.71 0.424 0 0.83 0.056 1.222 0.167 0.392 0.112 0.976 0.357 1.751 0.738" fill="#a05a09"/></g><g transform="translate(502.56 52.764)"><path d="m0 0v0.793c-0.512-0.599-1.109-0.898-1.791-0.898-0.602 0-1.092 0.186-1.468 0.557-0.376 0.372-0.564 0.887-0.564 1.546v3.547h1.745v-3.425c0-0.704 0.291-1.058 0.875-1.058 0.328 0 0.609 0.129 0.843 0.385 0.233 0.256 0.349 0.445 0.349 0.567v3.531h1.757v-5.545z" fill="#a05a09"/></g><path d="m507.53 52.764h-1.746v8.205h1.746z" fill="#a05a09"/><g transform="translate(512.99 58.309)"><path d="m0 0v-1.193h-2.02v-2.285c0-0.274 0.076-0.49 0.226-0.649 0.151-0.159 0.359-0.238 0.626-0.238 0.36 0 0.749 0.108 1.168 0.323v-1.262c-0.556-0.232-1.094-0.347-1.614-0.347-0.682 0-1.211 0.176-1.587 0.529-0.375 0.352-0.564 0.869-0.564 1.55v2.379h-0.793v0.341l2.321 2.596h0.217v-1.744z" fill="#a05a09"/></g><g transform="translate(517.72 52.764)"><path d="m0 0v0.793c-0.512-0.599-1.109-0.898-1.791-0.898-0.602 0-1.093 0.186-1.468 0.557-0.376 0.372-0.564 0.887-0.564 1.546v3.547h1.745v-3.425c0-0.704 0.291-1.058 0.874-1.058 0.329 0 0.61 0.129 0.844 0.385 0.233 0.256 0.349 0.445 0.349 0.567v3.531h1.757v-5.545z" fill="#a05a09"/></g><g transform="translate(522.7 58.309)"><path d="m0 0v-1.587h0.023c0.506 1.136 1.096 1.705 1.769 1.705 0.32 0 0.707-0.169 1.157-0.506l-0.482-1.545c-0.431 0.275-0.775 0.412-1.033 0.412-0.405 0-0.744-0.251-1.019-0.751-0.277-0.499-0.415-0.791-0.415-0.873v-2.4h-1.744v5.545z" fill="#a05a09"/></g><g transform="translate(527.62 56.176)"><path d="m0 0h2.409c-0.095 0.808-0.496 1.21-1.205 1.21-0.717 0-1.118-0.402-1.204-1.21m3.848-1.691v-1.098c-0.666-0.486-1.49-0.729-2.473-0.729-0.975 0-1.756 0.262-2.339 0.785s-0.875 1.216-0.875 2.078c0 0.848 0.274 1.543 0.823 2.089 0.548 0.544 1.248 0.817 2.096 0.817 0.855 0 1.554-0.288 2.101-0.861 0.546-0.574 0.801-1.342 0.766-2.306h-3.983c0.036-0.503 0.214-0.89 0.534-1.161 0.322-0.271 0.753-0.407 1.293-0.407 0.654 0 1.339 0.265 2.057 0.793" fill="#a05a09"/></g><g transform="translate(379.1 75.564)"><path d="m0 0v1.344c-0.584-0.203-0.984-0.388-1.202-0.551-0.217-0.163-0.325-0.37-0.325-0.622 0-0.16 0.054-0.3 0.164-0.415 0.109-0.116 0.243-0.174 0.4-0.174 0.328 0 0.649 0.14 0.963 0.418m2.69 0.023v-0.969c-0.579-0.337-1.124-0.505-1.633-0.505-0.548 0-0.873 0.207-0.975 0.623-0.607-0.416-1.216-0.623-1.826-0.623-0.432 0-0.798 0.135-1.099 0.408-0.301 0.272-0.453 0.59-0.453 0.95 0 0.483 0.156 0.872 0.468 1.168 0.311 0.297 1.253 0.678 2.828 1.144 0.039 0.619-0.282 0.929-0.963 0.929-0.74 0-1.422-0.31-2.045-0.929v1.422c0.729 0.45 1.529 0.676 2.403 0.676 1.566 0 2.349-0.563 2.349-1.688v-2.529c0-0.259 0.096-0.389 0.288-0.389 0.145 0 0.364 0.104 0.658 0.312" fill="#010101"/></g><g transform="translate(384.26 79.763)"><path d="m0 0v-0.787c0.513 0.602 1.114 0.905 1.803 0.905 0.575 0 1.057-0.185 1.442-0.553 0.385-0.369 0.578-0.896 0.578-1.582v-3.528h-1.744v3.382c0 0.74-0.288 1.112-0.863 1.112-0.412 0-0.817-0.306-1.216-0.917v-3.577h-1.745v5.545z" fill="#010101"/></g><g transform="translate(395.84 75.564)"><path d="m0 0v1.344c-0.584-0.203-0.984-0.388-1.202-0.551-0.217-0.163-0.325-0.37-0.325-0.622 0-0.16 0.054-0.3 0.164-0.415 0.109-0.116 0.243-0.174 0.4-0.174 0.328 0 0.649 0.14 0.963 0.418m2.69 0.023v-0.969c-0.579-0.337-1.124-0.505-1.633-0.505-0.548 0-0.873 0.207-0.975 0.623-0.607-0.416-1.216-0.623-1.826-0.623-0.432 0-0.798 0.135-1.099 0.408-0.301 0.272-0.453 0.59-0.453 0.95 0 0.483 0.157 0.872 0.468 1.168 0.311 0.297 1.253 0.678 2.828 1.144 0.039 0.619-0.282 0.929-0.963 0.929-0.74 0-1.422-0.31-2.045-0.929v1.422c0.729 0.45 1.529 0.676 2.403 0.676 1.566 0 2.349-0.563 2.349-1.688v-2.529c0-0.259 0.096-0.389 0.288-0.389 0.145 0 0.364 0.104 0.658 0.312" fill="#010101"/></g><g transform="translate(401.59 78.73)"><path d="m0 0c-0.285 0-0.524-0.098-0.717-0.294s-0.29-0.434-0.29-0.716c0-0.27 0.099-0.504 0.298-0.703 0.2-0.197 0.436-0.296 0.709-0.296 0.274 0 0.508 0.103 0.703 0.311 0.195 0.207 0.293 0.456 0.293 0.746 0 0.262-0.095 0.486-0.284 0.673-0.19 0.186-0.427 0.279-0.712 0.279m0.145-6.245c0.371 0 0.672 0.07 0.904 0.207 0.23 0.137 0.346 0.301 0.346 0.493 0 0.406-0.452 0.611-1.357 0.611-0.411 0-0.734-0.059-0.969-0.18-0.235-0.119-0.352-0.279-0.352-0.478 0-0.435 0.476-0.653 1.428-0.653m2.994 7.279v-1.17h-0.792c0.184-0.313 0.276-0.62 0.276-0.921 0-0.431-0.161-0.828-0.482-1.192-0.321-0.365-0.796-0.581-1.424-0.65-0.629-0.068-0.985-0.134-1.07-0.194-0.084-0.06-0.126-0.14-0.126-0.238 0-0.097 0.055-0.177 0.165-0.237 0.109-0.062 0.541-0.125 1.295-0.189s1.279-0.262 1.575-0.593c0.295-0.331 0.443-0.686 0.443-1.067 0-0.606-0.252-1.067-0.755-1.385s-1.231-0.477-2.182-0.477c-0.971 0-1.708 0.148-2.209 0.441-0.501 0.295-0.752 0.684-0.752 1.17 0 0.673 0.494 1.143 1.481 1.409-0.447 0.134-0.67 0.375-0.67 0.722 0 0.408 0.337 0.688 1.01 0.841-0.45 0.078-0.822 0.274-1.116 0.588-0.293 0.312-0.44 0.687-0.44 1.121 0 0.533 0.211 1.002 0.634 1.41 0.423 0.407 1.038 0.611 1.845 0.611z" fill="#010101"/></g><g transform="translate(406.98 77.63)"><path d="m0 0h2.408c-0.094 0.808-0.495 1.21-1.204 1.21-0.717 0-1.118-0.402-1.204-1.21m3.847-1.691v-1.098c-0.666-0.486-1.49-0.729-2.473-0.729-0.975 0-1.754 0.262-2.338 0.785-0.583 0.523-0.875 1.216-0.875 2.078 0 0.848 0.274 1.543 0.822 2.089 0.549 0.544 1.248 0.817 2.097 0.817 0.854 0 1.554-0.288 2.101-0.861 0.546-0.574 0.801-1.342 0.766-2.306h-3.983c0.036-0.503 0.214-0.89 0.535-1.161s0.752-0.407 1.293-0.407c0.653 0 1.339 0.265 2.055 0.793" fill="#010101"/></g><g transform="translate(413.79 79.763)"><path d="m0 0v-0.787c0.513 0.602 1.114 0.905 1.803 0.905 0.575 0 1.057-0.185 1.442-0.553 0.385-0.369 0.578-0.896 0.578-1.582v-3.528h-1.744v3.382c0 0.74-0.288 1.112-0.863 1.112-0.412 0-0.817-0.306-1.216-0.917v-3.577h-1.745v5.545z" fill="#010101"/></g><g transform="translate(423.91 75.734)"><path d="m0 0v-1.251c-0.681-0.247-1.306-0.37-1.874-0.37-0.975 0-1.754 0.261-2.338 0.784-0.583 0.523-0.875 1.216-0.875 2.079 0 0.843 0.295 1.538 0.884 2.085 0.59 0.546 1.34 0.82 2.253 0.82 0.587 0 1.21-0.121 1.868-0.364v-1.299c-0.482 0.248-0.956 0.371-1.422 0.371-0.52 0-0.938-0.145-1.251-0.436-0.313-0.29-0.47-0.679-0.47-1.165 0-0.49 0.153-0.886 0.458-1.186 0.306-0.3 0.707-0.45 1.205-0.45 0.367 0 0.888 0.127 1.562 0.382" fill="#010101"/></g><g transform="translate(430.48 79.763)"><path d="m0 0-3.716-8.205h-1.859l1.628 3.566-2.169 4.639h1.86l1.174-2.856 1.253 2.856z" fill="#010101"/></g><g transform="translate(437.41 75.146)"><path d="m0 0c0.834 0 1.251 0.63 1.251 1.888 0 1.205-0.417 1.806-1.251 1.806-0.4 0-0.712-0.159-0.938-0.476-0.225-0.318-0.337-0.773-0.337-1.365 0-1.236 0.425-1.853 1.275-1.853m0 4.735c0.869 0 1.606-0.256 2.211-0.766 0.605-0.509 0.908-1.218 0.908-2.127 0-0.914-0.308-1.622-0.923-2.124-0.613-0.501-1.347-0.752-2.196-0.752-0.92 0-1.673 0.267-2.259 0.803-0.585 0.535-0.878 1.229-0.878 2.084 0 0.87 0.298 1.567 0.896 2.093 0.597 0.526 1.344 0.789 2.241 0.789" fill="#010101"/></g><g transform="translate(443.7 79.763)"><path d="m0 0h0.793v-1.193h-0.793v-4.352h-1.744v4.352h-0.793v1.193h0.793v0.275c0 0.779 0.219 1.39 0.658 1.831 0.438 0.439 1.03 0.66 1.773 0.66 0.181 0 0.533-0.034 1.057-0.106v-1.409c-0.364 0.047-0.624 0.07-0.78 0.07-0.642 0-0.964-0.323-0.964-0.969z" fill="#010101"/></g><g transform="translate(452.66 79.763)"><path d="m0 0v-1.193h-2.02v-2.285c0-0.273 0.076-0.49 0.226-0.649 0.151-0.158 0.359-0.238 0.626-0.238 0.36 0 0.749 0.108 1.168 0.323v-1.262c-0.556-0.232-1.094-0.347-1.614-0.347-0.682 0-1.211 0.176-1.587 0.529-0.375 0.352-0.564 0.869-0.564 1.55v2.379h-0.793v0.341l2.321 2.596h0.217v-1.744z" fill="#010101"/></g><g transform="translate(455.32 82.424)"><path d="m0 0v-3.471h0.023c0.486 0.619 1.071 0.928 1.757 0.928 0.591 0 1.078-0.187 1.46-0.562 0.382-0.374 0.572-0.894 0.572-1.561v-3.539h-1.744v3.169c0 0.808-0.3 1.212-0.899 1.212-0.395 0-0.786-0.28-1.169-0.841v-3.54h-1.744v8.205z" fill="#010101"/></g><g transform="translate(462.13 77.63)"><path d="m0 0h2.408c-0.094 0.808-0.495 1.21-1.205 1.21-0.716 0-1.117-0.402-1.203-1.21m3.847-1.691v-1.098c-0.665-0.486-1.489-0.729-2.472-0.729-0.975 0-1.756 0.262-2.339 0.785s-0.875 1.216-0.875 2.078c0 0.848 0.274 1.543 0.823 2.089 0.548 0.544 1.248 0.817 2.096 0.817 0.855 0 1.554-0.288 2.101-0.861 0.546-0.574 0.801-1.342 0.766-2.306h-3.983c0.036-0.503 0.214-0.89 0.534-1.161 0.322-0.271 0.753-0.407 1.293-0.407 0.654 0 1.339 0.265 2.056 0.793" fill="#010101"/></g></g></g></g></svg>
